<svg width="212" height="34" viewBox="0 0 212 34" fill="none" xmlns="http://www.w3.org/2000/svg">
<mask id="mask0" mask-type="alpha" maskUnits="userSpaceOnUse" x="177" y="0" width="35" height="34">
<path fill-rule="evenodd" clip-rule="evenodd" d="M212 0.101562V33.3425H177.879V0.101563H212V0.101562Z" fill="white"/>
</mask>
<g mask="url(#mask0)">
<path fill-rule="evenodd" clip-rule="evenodd" d="M194.94 0.101562H177.879V0.124563V16.7221V33.3425H194.94H211.977H212V16.7221C212 7.54281 204.362 0.101562 194.94 0.101562Z" fill="#001780"/>
</g>
<path fill-rule="evenodd" clip-rule="evenodd" d="M6.02633 33.2343H0.0524428V13.2736C0.0524428 11.0779 0.0524428 9.80148 0 7.70882H5.50232V10.3633H5.55476C6.60257 8.67851 9.27549 6.94287 12.996 6.94287C19.389 6.94287 24.2626 11.027 24.2626 19.2462V33.2343H18.2885V19.144C18.2885 14.9579 16.2974 12.15 12.1575 12.15C8.01769 12.15 6.02633 14.9579 6.02633 19.144V33.2343Z" fill="#001780"/>
<path fill-rule="evenodd" clip-rule="evenodd" d="M55.1228 25.6278C53.5509 30.4266 49.1489 34.0001 42.2841 34.0001C34.5808 34.0001 28.9736 28.6395 28.9736 20.3692C28.9736 12.2009 34.7906 6.94287 42.1792 6.94287C49.5158 6.94287 54.861 12.15 54.861 20.3183V21.9518H35.0526C35.5242 26.4446 38.3538 29.1502 42.5987 29.1502C46.0048 29.1502 47.8913 27.6696 48.6773 25.6278H55.1228ZM35.0558 17.5097H48.628C48.2613 14.2423 46.1126 11.4853 42.0252 11.4853C38.1474 11.4853 35.5798 14.2934 35.0558 17.5097Z" fill="#001780"/>
<path fill-rule="evenodd" clip-rule="evenodd" d="M72.8926 34.0001C65.6086 34.0001 59.3203 29.3032 59.3203 20.4712C59.3203 11.691 65.8182 6.94287 73.1023 6.94287C79.7576 6.94287 84.5261 10.874 85.6268 15.9791H79.286C78.5522 13.8856 76.5086 12.2011 73.1023 12.2011C68.5434 12.2011 65.3466 15.4684 65.3466 20.4712C65.3466 25.4743 68.5434 28.7932 73.0499 28.7932C76.6133 28.7932 78.8144 26.9547 79.4956 24.8621H85.8361C84.7359 29.967 79.4956 34.0001 72.8926 34.0001Z" fill="#001780"/>
<path fill-rule="evenodd" clip-rule="evenodd" d="M103.756 33.4386C97.6245 33.4386 93.6942 30.3754 93.6942 23.3818V12.8141H88.4541V7.70912H93.6942V0H96.4258C98.2166 0 99.6681 1.41404 99.6681 3.15843V7.70912H106.952V12.8141H99.6681V23.0756C99.6681 27.1596 102.183 28.1806 104.908 28.1806C105.957 28.1806 106.69 28.0786 107.267 27.9764V33.0816C106.428 33.2855 105.066 33.4386 103.756 33.4386Z" fill="#001780"/>
<path fill-rule="evenodd" clip-rule="evenodd" d="M111.567 20.5223C111.567 12.5076 116.755 6.94287 124.825 6.94287C127.969 6.94287 132.213 8.7296 133.314 11.2312H133.367V7.70882H139.131C139.079 9.80148 139.079 11.0781 139.079 13.2736V33.2343H133.314V29.712H133.262C132.161 32.2136 128.021 34.0001 124.825 34.0001C116.755 34.0001 111.567 28.5375 111.567 20.5223ZM133.265 20.5208C133.265 15.3137 129.806 12.3016 125.457 12.3016C121.002 12.3016 117.649 15.3137 117.649 20.5208C117.649 25.7283 121.002 28.638 125.457 28.638C129.596 28.638 133.265 25.7283 133.265 20.5208Z" fill="#001780"/>
<path fill-rule="evenodd" clip-rule="evenodd" d="M160.511 12.8138C155.532 12.8138 152.493 15.5704 152.493 20.7779V33.2343H146.519V13.2736C146.519 11.0781 146.519 9.80148 146.467 7.70882H152.231V11.895H152.336C153.331 9.03573 156.266 6.94287 159.987 6.94287C161.035 6.94287 161.664 7.04505 161.664 7.04505V12.8138H160.511Z" fill="#001780"/>
</svg>
