<svg width="71" height="57" viewBox="0 0 71 57" fill="none" xmlns="http://www.w3.org/2000/svg">
<g clip-path="url(#clip0)">
<path d="M0.637939 6.01611L9.23037 10.3123C14.6605 13.0274 21.1738 12.3374 25.9146 8.5448V8.5448C31.5992 3.9971 39.6767 3.9971 45.3613 8.5448V8.5448C50.1021 12.3374 56.6153 13.0274 62.0455 10.3123L70.6379 6.01611" stroke="#001780" stroke-width="2.5"/>
<path d="M0.637939 27.0161L9.23037 31.3123C14.6605 34.0274 21.1738 33.3374 25.9146 29.5448V29.5448C31.5992 24.9971 39.6767 24.9971 45.3613 29.5448V29.5448C50.1021 33.3374 56.6153 34.0274 62.0455 31.3123L70.6379 27.0161" stroke="#001780" stroke-width="2.5"/>
<path d="M0.637939 48.0161L9.23037 52.3123C14.6605 55.0274 21.1738 54.3374 25.9146 50.5448V50.5448C31.5992 45.9971 39.6767 45.9971 45.3613 50.5448V50.5448C50.1021 54.3374 56.6153 55.0274 62.0455 52.3123L70.6379 48.0161" stroke="#001780" stroke-width="2.5"/>
</g>
<defs>
<clipPath id="clip0">
<rect width="70" height="56" fill="white" transform="translate(0.637939 0.766113)"/>
</clipPath>
</defs>
</svg>
