<svg width="120" height="44" viewBox="0 0 120 44" fill="none" xmlns="http://www.w3.org/2000/svg">
<path d="M58.3862 16.3119L59.3496 16.2765V15.3125V1.09132C59.3496 1.08984 59.348 1.07655 59.3735 1.05304C59.4004 1.02811 59.4523 1 59.5294 1C59.6065 1 59.6584 1.02811 59.6854 1.05304C59.7097 1.07557 59.7093 1.08872 59.7092 1.09107L59.7092 1.09132V15.3125V16.2765L60.6726 16.3119C65.3296 16.4826 69.7009 17.6857 73.5195 19.6777L74.3352 20.1033L74.8271 19.3257L82.9382 6.50271L82.9383 6.50274L82.9438 6.49382C82.9536 6.47785 83.0127 6.4259 83.0953 6.41923L83.1136 6.41775L83.1319 6.4156C83.1336 6.4154 83.1357 6.41527 83.1401 6.41617C83.1452 6.41719 83.1554 6.42005 83.1701 6.42775C83.2023 6.44462 83.2416 6.47738 83.2728 6.52297C83.2864 6.54286 83.2957 6.56131 83.3017 6.57639L75.2002 19.4522L74.667 20.2995L75.515 20.8317C78.9467 22.9854 81.8494 25.81 83.9831 29.09L84.4714 29.8406L85.2712 29.4378C85.2731 29.4369 85.2751 29.4359 85.2773 29.4349C85.2796 29.4338 85.2822 29.4327 85.285 29.4315L85.3265 29.4139L85.3662 29.3927L99.6713 21.7535L99.6941 21.7413L99.7164 21.7279C99.7386 21.7145 99.7694 21.7028 99.8036 21.6975C99.8313 21.6977 99.8754 21.707 99.9219 21.7373C99.9572 21.7602 99.9733 21.7815 99.9793 21.7907C99.9786 21.7942 99.9772 21.7994 99.9742 21.8061C99.9645 21.8284 99.9478 21.8451 99.9304 21.8539L99.9196 21.8593L99.9089 21.865L85.6039 29.5042L85.5523 29.5318L85.5042 29.5652C85.5017 29.5669 85.4991 29.5686 85.4963 29.5703C85.4932 29.5723 85.4899 29.5742 85.4864 29.5761L84.6123 30.0516L85.0835 30.9281C86.8113 34.1416 87.8259 37.7196 87.9885 41.5128L88.0295 42.47H88.9875H117.879C117.956 42.47 118.008 42.4981 118.035 42.523C118.059 42.5456 118.059 42.5587 118.059 42.5611V42.5613V42.5616C118.059 42.5639 118.059 42.5771 118.035 42.5996C118.008 42.6245 117.956 42.6526 117.879 42.6526H1.1798C1.10271 42.6526 1.05079 42.6245 1.02384 42.5996C0.999475 42.5771 0.999915 42.5639 0.999994 42.5616L1 42.5613L0.999994 42.5611C0.999915 42.5587 0.999475 42.5456 1.02384 42.523C1.05079 42.4981 1.10271 42.47 1.1798 42.47H30.0713H31.0293L31.0704 41.5128C31.2329 37.7196 32.2475 34.1416 33.9753 30.9281L34.4465 30.0516L33.5724 29.5761C33.5659 29.5726 33.56 29.5689 33.5546 29.5652L33.5083 29.533L33.4588 29.5063L19.3012 21.8671L19.2909 21.8615L19.2804 21.8562C19.2676 21.8496 19.2544 21.8402 19.2423 21.8278C19.23 21.8153 19.2209 21.8021 19.2151 21.7904C19.2151 21.7904 19.2151 21.7904 19.2151 21.7903C19.2226 21.7812 19.2345 21.7687 19.2528 21.7546C19.2988 21.7191 19.3464 21.7038 19.3766 21.7006C19.4235 21.7015 19.4685 21.7153 19.4985 21.733L19.5147 21.7425L19.5312 21.7515L33.6888 29.3907L33.7307 29.4133L33.7745 29.4318C33.7789 29.4336 33.7833 29.4357 33.7876 29.4378L34.5874 29.8406L35.0757 29.09C37.2094 25.81 40.1121 22.9854 43.5438 20.8317L44.3918 20.2995L43.8586 19.4522L35.7535 6.57063C35.7569 6.55899 35.7631 6.54272 35.7743 6.52318C35.7961 6.48522 35.8252 6.45567 35.8514 6.43844C35.8748 6.42297 35.8877 6.42209 35.8916 6.42196L35.908 6.42144L35.9244 6.42037C35.9589 6.41814 36.0065 6.42597 36.0529 6.44887C36.1001 6.47219 36.1164 6.49598 36.1159 6.49518L36.1159 6.4952L36.1206 6.50271L44.2317 19.3257L44.7236 20.1033L45.5394 19.6777C49.3579 17.6857 53.7292 16.4826 58.3862 16.3119ZM86.5542 42.47H87.6023L87.5531 41.4231C86.8981 27.4709 74.5993 16.4611 59.5294 16.4611C44.4595 16.4611 32.1607 27.4709 31.5057 41.4231L31.4566 42.47H32.5046H86.5542Z" stroke="#001780" stroke-width="2" stroke-linecap="round"/>
</svg>
