<svg width="212" height="34" viewBox="0 0 212 34" fill="none" xmlns="http://www.w3.org/2000/svg">
<mask id="mask0" mask-type="alpha" maskUnits="userSpaceOnUse" x="177" y="0" width="35" height="34">
<path fill-rule="evenodd" clip-rule="evenodd" d="M212 0.101318V33.3423H177.879V0.101318H212V0.101318Z" fill="white"/>
</mask>
<g mask="url(#mask0)">
<path fill-rule="evenodd" clip-rule="evenodd" d="M194.94 0.101318H177.879V0.124319V16.7219V33.3423H194.94H211.977H212V16.7219C212 7.54257 204.362 0.101318 194.94 0.101318Z" fill="white"/>
</g>
<path fill-rule="evenodd" clip-rule="evenodd" d="M6.02633 33.2346H0.0524428V13.2738C0.0524428 11.0782 0.0524428 9.80172 0 7.70906H5.50232V10.3635H5.55476C6.60257 8.67875 9.27549 6.94312 12.996 6.94312C19.389 6.94312 24.2626 11.0273 24.2626 19.2465V33.2346H18.2885V19.1443C18.2885 14.9582 16.2974 12.1502 12.1575 12.1502C8.01769 12.1502 6.02633 14.9582 6.02633 19.1443V33.2346Z" fill="white"/>
<path fill-rule="evenodd" clip-rule="evenodd" d="M55.123 25.6281C53.5512 30.4269 49.1491 34.0003 42.2843 34.0003C34.5811 34.0003 28.9739 28.6397 28.9739 20.3694C28.9739 12.2011 34.7909 6.94312 42.1794 6.94312C49.516 6.94312 54.8612 12.1502 54.8612 20.3186V21.952H35.0529C35.5244 26.4449 38.354 29.1504 42.599 29.1504C46.0051 29.1504 47.8915 27.6698 48.6775 25.6281H55.123ZM35.056 17.5099H48.6282C48.2616 14.2426 46.1129 11.4856 42.0255 11.4856C38.1476 11.4856 35.58 14.2937 35.056 17.5099Z" fill="white"/>
<path fill-rule="evenodd" clip-rule="evenodd" d="M72.8926 34.0003C65.6086 34.0003 59.3203 29.3035 59.3203 20.4714C59.3203 11.6912 65.8182 6.94312 73.1023 6.94312C79.7576 6.94312 84.5261 10.8742 85.6268 15.9793H79.286C78.5522 13.8859 76.5086 12.2013 73.1023 12.2013C68.5434 12.2013 65.3466 15.4687 65.3466 20.4714C65.3466 25.4746 68.5434 28.7934 73.0499 28.7934C76.6133 28.7934 78.8144 26.955 79.4956 24.8623H85.8361C84.7359 29.9673 79.4956 34.0003 72.8926 34.0003Z" fill="white"/>
<path fill-rule="evenodd" clip-rule="evenodd" d="M103.756 33.4386C97.6245 33.4386 93.6942 30.3754 93.6942 23.3818V12.8141H88.4541V7.70912H93.6942V0H96.4258C98.2166 0 99.6681 1.41404 99.6681 3.15843V7.70912H106.952V12.8141H99.6681V23.0756C99.6681 27.1596 102.183 28.1806 104.908 28.1806C105.957 28.1806 106.69 28.0786 107.267 27.9764V33.0816C106.428 33.2855 105.066 33.4386 103.756 33.4386Z" fill="white"/>
<path fill-rule="evenodd" clip-rule="evenodd" d="M111.567 20.5225C111.567 12.5079 116.755 6.94312 124.825 6.94312C127.969 6.94312 132.213 8.72984 133.314 11.2314H133.366V7.70906H139.131C139.078 9.80172 139.078 11.0784 139.078 13.2738V33.2346H133.314V29.7122H133.262C132.161 32.2138 128.021 34.0003 124.825 34.0003C116.755 34.0003 111.567 28.5377 111.567 20.5225ZM133.265 20.521C133.265 15.3139 129.805 12.3018 125.456 12.3018C121.002 12.3018 117.649 15.3139 117.649 20.521C117.649 25.7286 121.002 28.6382 125.456 28.6382C129.596 28.6382 133.265 25.7286 133.265 20.521Z" fill="white"/>
<path fill-rule="evenodd" clip-rule="evenodd" d="M160.511 12.814C155.532 12.814 152.493 15.5706 152.493 20.7782V33.2346H146.519V13.2738C146.519 11.0784 146.519 9.80172 146.467 7.70906H152.231V11.8952H152.336C153.331 9.03598 156.266 6.94312 159.987 6.94312C161.035 6.94312 161.664 7.0453 161.664 7.0453V12.814H160.511Z" fill="white"/>
</svg>
