<svg width="288" height="46" viewBox="0 0 288 46" fill="none" xmlns="http://www.w3.org/2000/svg">
<g clip-path="url(#clip0)">
<path d="M98.9277 34.0104H105.121C110.315 34.0104 113.836 30.5892 113.836 25.6946C113.836 20.8 110.315 17.3538 105.121 17.3538H98.9277V34.0104ZM101.85 31.4383V19.926H105.121C108.842 19.926 110.84 22.4732 110.84 25.6946C110.84 28.8411 108.742 31.4383 105.121 31.4383H101.85Z" fill="#1A2A59"/>
<path d="M128.669 34.0104H132.04L127.97 27.4677C129.968 27.143 131.915 25.5448 131.915 22.573C131.915 19.5014 129.768 17.3538 126.471 17.3538H119.154V34.0104H122.076V27.7923H124.973L128.669 34.0104ZM128.919 22.573C128.919 24.1713 127.72 25.2201 126.072 25.2201H122.076V19.926H126.072C127.72 19.926 128.919 20.9748 128.919 22.573Z" fill="#1A2A59"/>
<path d="M137.333 34.0104H148.745V31.4383H140.254V26.8184H148.57V24.2462H140.254V19.926H148.745V17.3538H137.333V34.0104Z" fill="#1A2A59"/>
<path d="M166.03 34.0104H169.226L162.683 17.3538H159.037L152.495 34.0104H155.691L156.915 30.814H164.806L166.03 34.0104ZM160.86 19.8261L163.982 28.2418H157.739L160.86 19.8261Z" fill="#1A2A59"/>
<path d="M187.927 34.0104H190.849V17.3538H186.728L182.183 28.5664L177.663 17.3538H173.543V34.0104H176.465V21.3993L181.559 34.0104H182.808L187.927 21.3993V34.0104Z" fill="#1A2A59"/>
<path d="M204.757 34.3101C208.254 34.3101 210.301 32.562 211.575 30.5642L209.078 29.2906C208.279 30.6891 206.68 31.713 204.757 31.713C201.586 31.713 199.139 29.1908 199.139 25.6946C199.139 22.1985 201.586 19.6762 204.757 19.6762C206.68 19.6762 208.279 20.7251 209.078 22.0986L211.575 20.825C210.326 18.8272 208.254 17.0791 204.757 17.0791C199.963 17.0791 196.142 20.5752 196.142 25.6946C196.142 30.814 199.963 34.3101 204.757 34.3101Z" fill="#1A2A59"/>
<path d="M216.411 34.0104H226.674V31.4383H219.332V17.3538H216.411V34.0104Z" fill="#1A2A59"/>
<path d="M230.303 25.6946C230.303 30.6641 233.825 34.3101 238.819 34.3101C243.814 34.3101 247.335 30.6641 247.335 25.6946C247.335 20.7251 243.814 17.0791 238.819 17.0791C233.825 17.0791 230.303 20.7251 230.303 25.6946ZM244.338 25.6946C244.338 29.1158 242.165 31.713 238.819 31.713C235.448 31.713 233.3 29.1158 233.3 25.6946C233.3 22.2484 235.448 19.6762 238.819 19.6762C242.165 19.6762 244.338 22.2484 244.338 25.6946Z" fill="#1A2A59"/>
<path d="M252.645 27.4427C252.645 31.5382 255.017 34.3101 259.862 34.3101C264.682 34.3101 267.054 31.5631 267.054 27.4177V17.3538H264.107V27.3428C264.107 29.9899 262.634 31.713 259.862 31.713C257.065 31.713 255.592 29.9899 255.592 27.3428V17.3538H252.645V27.4427Z" fill="#1A2A59"/>
<path d="M273.091 34.0104H279.284C284.479 34.0104 288 30.5892 288 25.6946C288 20.8 284.479 17.3538 279.284 17.3538H273.091V34.0104ZM276.013 31.4383V19.926H279.284C283.005 19.926 285.003 22.4732 285.003 25.6946C285.003 28.8411 282.905 31.4383 279.284 31.4383H276.013Z" fill="#1A2A59"/>
<path fill-rule="evenodd" clip-rule="evenodd" d="M34.4292 13.5986C41.46 13.5986 47.5863 17.6591 50.81 23.6699C51.3491 21.9151 51.6441 20.0449 51.6441 18.1006C51.6441 8.10414 43.9369 0 34.4292 0C24.9223 0 17.2151 8.10414 17.2151 18.1006C17.2151 20.0449 17.5093 21.9151 18.0492 23.6699C21.2721 17.6591 27.3991 13.5986 34.4292 13.5986Z" fill="#1A2A59"/>
<path fill-rule="evenodd" clip-rule="evenodd" d="M4.94165 37.7593C5.86101 38.2267 6.82925 38.5472 7.81378 38.7331C5.8967 35.8766 5.7361 32.2185 7.75404 29.1406C9.77119 26.0626 13.4486 24.3563 17.2145 24.3904C16.5403 23.7323 15.7404 23.1535 14.8218 22.6861C10.0963 20.2827 4.05333 21.7089 1.32551 25.8713C-1.40308 30.0337 0.216077 35.3558 4.94165 37.7593Z" fill="#1A2A59"/>
<path fill-rule="evenodd" clip-rule="evenodd" d="M66.8041 30.7994C69.5783 35.4165 69.3566 40.9041 66.7215 45.1884C68.0754 44.91 69.4071 44.4288 70.6708 43.728C77.168 40.1232 79.3941 32.1393 75.6429 25.8958C71.8916 19.6522 63.5834 17.513 57.0862 21.1178C55.8225 21.8186 54.7232 22.687 53.7952 23.6736C58.9737 23.6229 64.0306 26.1823 66.8041 30.7994Z" fill="#1A2A59"/>
</g>
<defs>
<clipPath id="clip0">
<rect width="288" height="45.1881" fill="white"/>
</clipPath>
</defs>
</svg>
