<svg width="218" height="35" viewBox="0 0 218 35" fill="none" xmlns="http://www.w3.org/2000/svg">
<path d="M74.8462 25.7317H79.5318C83.4616 25.7317 86.1256 23.1433 86.1256 19.4401C86.1256 15.737 83.4616 13.1297 79.5318 13.1297H74.8462V25.7317ZM77.0567 23.7857V15.0757H79.5318C82.3469 15.0757 83.8584 17.0029 83.8584 19.4401C83.8584 21.8207 82.2713 23.7857 79.5318 23.7857H77.0567Z" fill="#1A2A59"/>
<path d="M97.3476 25.7317H99.8983L96.8186 20.7816C98.3301 20.536 99.8038 19.3268 99.8038 17.0785C99.8038 14.7545 98.179 13.1297 95.685 13.1297H90.1492V25.7317H92.3598V21.0272H94.5514L97.3476 25.7317ZM97.5366 17.0785C97.5366 18.2876 96.6297 19.0812 95.3827 19.0812H92.3598V15.0757H95.3827C96.6297 15.0757 97.5366 15.8693 97.5366 17.0785Z" fill="#1A2A59"/>
<path d="M103.902 25.7317H112.537V23.7857H106.113V20.2904H112.404V18.3443H106.113V15.0757H112.537V13.1297H103.902V25.7317Z" fill="#1A2A59"/>
<path d="M125.614 25.7317H128.032L123.082 13.1297H120.324L115.374 25.7317H117.792L118.718 23.3133H124.688L125.614 25.7317ZM121.703 15.0002L124.065 21.3673H119.341L121.703 15.0002Z" fill="#1A2A59"/>
<path d="M142.181 25.7317H144.391V13.1297H141.274L137.835 21.6129L134.415 13.1297H131.298V25.7317H133.509V16.1905L137.363 25.7317H138.307L142.181 16.1905V25.7317Z" fill="#1A2A59"/>
<path d="M154.914 25.9584C157.559 25.9584 159.109 24.6359 160.072 23.1244L158.183 22.1608C157.578 23.2188 156.369 23.9935 154.914 23.9935C152.515 23.9935 150.663 22.0852 150.663 19.4401C150.663 16.795 152.515 14.8868 154.914 14.8868C156.369 14.8868 157.578 15.6803 158.183 16.7195L160.072 15.7559C159.127 14.2444 157.559 12.9219 154.914 12.9219C151.287 12.9219 148.396 15.567 148.396 19.4401C148.396 23.3133 151.287 25.9584 154.914 25.9584Z" fill="#1A2A59"/>
<path d="M163.731 25.7317H171.496V23.7857H165.941V13.1297H163.731V25.7317Z" fill="#1A2A59"/>
<path d="M174.242 19.4401C174.242 23.2 176.906 25.9584 180.684 25.9584C184.463 25.9584 187.127 23.2 187.127 19.4401C187.127 15.6803 184.463 12.9219 180.684 12.9219C176.906 12.9219 174.242 15.6803 174.242 19.4401ZM184.86 19.4401C184.86 22.0286 183.216 23.9935 180.684 23.9935C178.134 23.9935 176.509 22.0286 176.509 19.4401C176.509 16.8328 178.134 14.8868 180.684 14.8868C183.216 14.8868 184.86 16.8328 184.86 19.4401Z" fill="#1A2A59"/>
<path d="M191.145 20.7627C191.145 23.8612 192.94 25.9584 196.605 25.9584C200.251 25.9584 202.046 23.8801 202.046 20.7438V13.1297H199.817V20.6871C199.817 22.6898 198.702 23.9935 196.605 23.9935C194.489 23.9935 193.374 22.6898 193.374 20.6871V13.1297H191.145V20.7627Z" fill="#1A2A59"/>
<path d="M206.614 25.7317H211.299C215.229 25.7317 217.893 23.1433 217.893 19.4401C217.893 15.737 215.229 13.1297 211.299 13.1297H206.614V25.7317ZM208.824 23.7857V15.0757H211.299C214.115 15.0757 215.626 17.0029 215.626 19.4401C215.626 21.8207 214.039 23.7857 211.299 23.7857H208.824Z" fill="#1A2A59"/>
<path fill-rule="evenodd" clip-rule="evenodd" d="M26.0482 10.2883C31.3675 10.2883 36.0025 13.3604 38.4415 17.9081C38.8493 16.5804 39.0725 15.1655 39.0725 13.6945C39.0725 6.13138 33.2414 0 26.0482 0C18.8555 0 13.0244 6.13138 13.0244 13.6945C13.0244 15.1655 13.247 16.5804 13.6555 17.9081C16.0939 13.3604 20.7294 10.2883 26.0482 10.2883Z" fill="#1A2A59"/>
<path fill-rule="evenodd" clip-rule="evenodd" d="M3.73873 28.5676C4.43429 28.9212 5.16683 29.1637 5.9117 29.3043C4.46129 27.1432 4.33979 24.3755 5.8665 22.0469C7.39263 19.7182 10.1749 18.4272 13.024 18.4531C12.514 17.9552 11.9088 17.5173 11.2138 17.1636C7.63857 15.3452 3.06664 16.4243 1.00285 19.5734C-1.06153 22.7226 0.163478 26.7492 3.73873 28.5676Z" fill="#1A2A59"/>
<path fill-rule="evenodd" clip-rule="evenodd" d="M50.5424 23.3018C52.6413 26.795 52.4736 30.9468 50.4799 34.1882C51.5042 33.9775 52.5118 33.6135 53.4678 33.0832C58.3834 30.3559 60.0677 24.3156 57.2296 19.5918C54.3915 14.8681 48.1057 13.2497 43.1901 15.9769C42.234 16.5072 41.4023 17.1641 40.7002 17.9106C44.6181 17.8722 48.4441 19.8086 50.5424 23.3018Z" fill="#1A2A59"/>
</svg>
