<svg width="288" height="46" viewBox="0 0 288 46" fill="none" xmlns="http://www.w3.org/2000/svg">
<g clip-path="url(#clip0)">
<path d="M98.9277 34.0107H105.121C110.315 34.0107 113.836 30.5895 113.836 25.6948C113.836 20.8002 110.315 17.354 105.121 17.354H98.9277V34.0107ZM101.85 31.4385V19.9262H105.121C108.842 19.9262 110.84 22.4734 110.84 25.6948C110.84 28.8414 108.742 31.4385 105.121 31.4385H101.85Z" fill="white"/>
<path d="M128.669 34.0107H132.04L127.97 27.4679C129.968 27.1433 131.915 25.545 131.915 22.5733C131.915 19.5017 129.768 17.354 126.471 17.354H119.154V34.0107H122.076V27.7925H124.973L128.669 34.0107ZM128.919 22.5733C128.919 24.1715 127.72 25.2204 126.072 25.2204H122.076V19.9262H126.072C127.72 19.9262 128.919 20.9751 128.919 22.5733Z" fill="white"/>
<path d="M137.333 34.0107H148.745V31.4385H140.254V26.8186H148.57V24.2464H140.254V19.9262H148.745V17.354H137.333V34.0107Z" fill="white"/>
<path d="M166.03 34.0107H169.226L162.683 17.354H159.037L152.495 34.0107H155.691L156.915 30.8142H164.806L166.03 34.0107ZM160.86 19.8263L163.982 28.242H157.739L160.86 19.8263Z" fill="white"/>
<path d="M187.927 34.0107H190.849V17.354H186.728L182.183 28.5667L177.663 17.354H173.543V34.0107H176.465V21.3996L181.559 34.0107H182.808L187.927 21.3996V34.0107Z" fill="white"/>
<path d="M204.757 34.3104C208.254 34.3104 210.301 32.5623 211.575 30.5645L209.078 29.2909C208.279 30.6893 206.68 31.7132 204.757 31.7132C201.586 31.7132 199.139 29.191 199.139 25.6948C199.139 22.1987 201.586 19.6765 204.757 19.6765C206.68 19.6765 208.279 20.7253 209.078 22.0988L211.575 20.8252C210.326 18.8274 208.254 17.0793 204.757 17.0793C199.963 17.0793 196.142 20.5755 196.142 25.6948C196.142 30.8142 199.963 34.3104 204.757 34.3104Z" fill="white"/>
<path d="M216.411 34.0107H226.674V31.4385H219.332V17.354H216.411V34.0107Z" fill="white"/>
<path d="M230.303 25.6948C230.303 30.6644 233.825 34.3104 238.819 34.3104C243.814 34.3104 247.335 30.6644 247.335 25.6948C247.335 20.7253 243.814 17.0793 238.819 17.0793C233.825 17.0793 230.303 20.7253 230.303 25.6948ZM244.338 25.6948C244.338 29.1161 242.165 31.7132 238.819 31.7132C235.448 31.7132 233.3 29.1161 233.3 25.6948C233.3 22.2486 235.448 19.6765 238.819 19.6765C242.165 19.6765 244.338 22.2486 244.338 25.6948Z" fill="white"/>
<path d="M252.645 27.4429C252.645 31.5384 255.017 34.3104 259.862 34.3104C264.682 34.3104 267.054 31.5634 267.054 27.418V17.354H264.107V27.343C264.107 29.9901 262.634 31.7132 259.862 31.7132C257.065 31.7132 255.592 29.9901 255.592 27.343V17.354H252.645V27.4429Z" fill="white"/>
<path d="M273.091 34.0107H279.284C284.479 34.0107 288 30.5895 288 25.6948C288 20.8002 284.479 17.354 279.284 17.354H273.091V34.0107ZM276.013 31.4385V19.9262H279.284C283.005 19.9262 285.003 22.4734 285.003 25.6948C285.003 28.8414 282.905 31.4385 279.284 31.4385H276.013Z" fill="white"/>
<path fill-rule="evenodd" clip-rule="evenodd" d="M34.4292 13.5986C41.46 13.5986 47.5863 17.6591 50.81 23.6699C51.3491 21.9151 51.6441 20.0449 51.6441 18.1006C51.6441 8.10414 43.9369 0 34.4292 0C24.9223 0 17.2151 8.10414 17.2151 18.1006C17.2151 20.0449 17.5093 21.9151 18.0492 23.6699C21.2721 17.6591 27.3991 13.5986 34.4292 13.5986Z" fill="white"/>
<path fill-rule="evenodd" clip-rule="evenodd" d="M4.94165 37.759C5.86101 38.2264 6.82925 38.5469 7.81378 38.7328C5.8967 35.8763 5.7361 32.2182 7.75404 29.1403C9.77119 26.0624 13.4486 24.356 17.2145 24.3902C16.5403 23.7321 15.7404 23.1533 14.8218 22.6859C10.0963 20.2824 4.05333 21.7086 1.32551 25.8711C-1.40308 30.0335 0.216077 35.3556 4.94165 37.759Z" fill="white"/>
<path fill-rule="evenodd" clip-rule="evenodd" d="M66.8041 30.7992C69.5783 35.4163 69.3566 40.9039 66.7215 45.1882C68.0754 44.9098 69.4071 44.4286 70.6708 43.7278C77.168 40.123 79.3941 32.1391 75.6429 25.8955C71.8916 19.652 63.5834 17.5128 57.0862 21.1176C55.8225 21.8184 54.7232 22.6867 53.7952 23.6733C58.9737 23.6226 64.0306 26.1821 66.8041 30.7992Z" fill="white"/>
</g>
<defs>
<clipPath id="clip0">
<rect width="288" height="45.1881" fill="white"/>
</clipPath>
</defs>
</svg>
